# xmcd
#
# Track frame offsets: 
#        150
#        12297
#        26433
#        38016
#        52430
#        65965
#        78402
#        91836
#        107434
#        122735
#        138975
#        150178
#        162759
#        172758
#        183119
#        197883
#        210411
#        222797
#        232420
#        244953
#        259816
#        272454
#        287079
#        298266
#        315382
#        328601
#
# Disc length: 4525 seconds
#
# Revision: 2
# Processed by: cddbd v1.5.2PL0 Copyright (c) Steve Scherf et al.
# Submitted via: ExactAudioCopyFreeDBPlugin 1.0
#
DISCID=7111ab1a
DTITLE=Various Artist - The Complete Meteor Blues, R&B, and Gospel Reco
DTITLE=rdings
DYEAR=2006
DGENRE=Rhythm and Blues
TTITLE0=Elmore James and His Broomdusters - Hawaiian Boogie
TTITLE1=Elmore James and His Broomdusters - Lost Woman Blues (aka "Pleas
TTITLE1=e Find My Baby")
TTITLE2=Sax Man Brown with Elmore James' Broom Dusters - Sax-Ony Boogi
TTITLE2=e
TTITLE3=JT "Big Boy" Brown with Elmore James' Broom Dusters - Dumb Wom
TTITLE3=an Blues
TTITLE4=Woodrow Adams with Boogie Blues Blasters - Baby You Just Don't
TTITLE4=Know
TTITLE5=Woodrow Adams with Boogie Blues Blasters - Wine Head Woman
TTITLE6=The Angel Voices - Tell the Angels
TTITLE7=The Angel Voices - Walkin' and Talkin' with Jesus
TTITLE8=James Anderson with The Anderson Harmoneers - Let My Last Days
TTITLE8=Be My Best
TTITLE9=James Anderson with The Anderson Harmoneers - Something Within
TTITLE9=Me
TTITLE10=Smokey Hogg - I Declare
TTITLE11=Smokey Hogg - Dark Clouds
TTITLE12=Minnie Thomas with Slim Waters' Lagoons - What Can the Matter
TTITLE12=Be
TTITLE13=Minnie Thomas with Slim Waters' Lagoons - I Know What You Nee
TTITLE13=d
TTITLE14=Walter Miller with The Barons - My Last Mile
TTITLE15=Walter Miller with The Barons - Standing on the Highway
TTITLE16=The Del Rios with The Bearcats - Alone on a Rainy Night
TTITLE17=The Del Rios with The Bearcats - Lizzie
TTITLE18=Rufus "Bearcat" Thomas with The Bearcats - The Easy Livin' Pl
TTITLE18=an
TTITLE19=Rufus "Bearcat" Thomas with The Bearcats - I'm Steady Holdin'
TTITLE19=On
TTITLE20=Little Milton with The Playmates of Rhythm - Love at First Si
TTITLE20=ght
TTITLE21=Little Milton with The Playmates of Rhythm - Let's Boogie Bab
TTITLE21=y
TTITLE22=Fenton Robinson with The Dukes - Tennessee Woman
TTITLE23=Fenton Robinson with The Dukes - Crying Out Loud
TTITLE24=Little Milton with The Playmates of Rhythm - Let My Baby Be
TTITLE25=Little Milton with The Playmates of Rhythm - Ooh! My Little B
TTITLE25=aby
EXTD=
EXTT0=
EXTT1=
EXTT2=
EXTT3=
EXTT4=
EXTT5=
EXTT6=
EXTT7=
EXTT8=
EXTT9=
EXTT10=
EXTT11=
EXTT12=
EXTT13=
EXTT14=
EXTT15=
EXTT16=
EXTT17=
EXTT18=
EXTT19=
EXTT20=
EXTT21=
EXTT22=
EXTT23=
EXTT24=
EXTT25=
PLAYORDER=
